<svg xmlns="http://www.w3.org/2000/svg" viewBox="0 0 300 300" width="100%" height="100%">
  <rect width="300" height="300" rx="16" fill="#1a0c0c"/>
  <rect x="30" y="30" width="240" height="240" rx="16" fill="#8b0000" stroke="#ff4500" stroke-width="5"/>
  <!-- T-Rex Lizard Head Silhouette by Shepard Fairey (1998) -->
  <path d="M 70 200 C 60 150 90 80 150 70 C 200 60 230 100 220 140 C 215 155 190 155 180 145 C 160 135 150 145 130 160 C 110 175 100 210 70 200 Z" fill="#111111"/>
  <!-- Glowing Eye -->
  <circle cx="165" cy="95" r="8" fill="#ff4500"/>
  <!-- Sharp Teeth -->
  <polygon points="175,135 185,145 190,135" fill="#ffffff"/>
  <polygon points="190,135 198,143 204,133" fill="#ffffff"/>
  <text x="150" y="240" font-family="'Impact', sans-serif" font-size="28" font-weight="900" fill="#ffffff" letter-spacing="4" text-anchor="middle">OPEN SOURCE</text>
  <text x="150" y="258" font-family="sans-serif" font-size="10" fill="#ffaa00" text-anchor="middle">NETSCAPE LIZARD MASCOT (1998)</text>
</svg>
